# xmcd CD database file
#
# Track frame offsets:
#	150
#	8543
#	39528
#	57849
#	76517
#	93311
#	121190
#	139931
#	162967
#	179501
#	194588
#	223411
#
# Disc length: 3320 seconds
#
# Revision: 1
# Processed by: cddbd v1.4PL0 Copyright (c) Steve Scherf et al.
# Submitted via: CDex 1.50Beta7
#
DISCID=9e0cf60c
DTITLE=The Texas Trumpets - The Texas Trumpets featuriung the Eastside Band
DYEAR=1999
DGENRE=Blues
TTITLE0=JB intro
TTITLE1=Tropical Breeze
TTITLE2=Paige 'n T.C.
TTITLE3=Last Night
TTITLE4=Sweet Spot
TTITLE5=Sassy
TTITLE6=One Night Stand
TTITLE7=Rebecca, Rebecca
TTITLE8=Blues in G (Big Fat Mama) Shake, Rattle and Roll
TTITLE9=Hully Gull Twist
TTITLE10=The Eastside
TTITLE11=JB out
EXTD=YEAR: 1999
EXTT0=
EXTT1=
EXTT2=
EXTT3=
EXTT4=
EXTT5=
EXTT6=
EXTT7=
EXTT8=
EXTT9=
EXTT10=
EXTT11=
PLAYORDER=
